<svg xmlns="http://www.w3.org/2000/svg" xmlns:xlink="http://www.w3.org/1999/xlink" id="visual" version="1.1" viewBox="0 435 900 166"><path d="M0 435L10 444.5C20 454 40 473 60 474.7C80 476.3 100 460.7 120 462.5C140 464.3 160 483.7 180 490.7C200 497.7 220 492.3 240 492.5C260 492.7 280 498.3 300 498.7C320 499 340 494 360 485C380 476 400 463 420 454C440 445 460 440 480 445.3C500 450.7 520 466.3 540 471C560 475.7 580 469.3 600 471.7C620 474 640 485 660 491.8C680 498.7 700 501.3 720 497.7C740 494 760 484 780 474.2C800 464.3 820 454.7 840 450.2C860 445.7 880 446.3 890 446.7L900 447L900 601L890 601C880 601 860 601 840 601C820 601 800 601 780 601C760 601 740 601 720 601C700 601 680 601 660 601C640 601 620 601 600 601C580 601 560 601 540 601C520 601 500 601 480 601C460 601 440 601 420 601C400 601 380 601 360 601C340 601 320 601 300 601C280 601 260 601 240 601C220 601 200 601 180 601C160 601 140 601 120 601C100 601 80 601 60 601C40 601 20 601 10 601L0 601Z" fill="#fa7268"/><path d="M0 487L10 487C20 487 40 487 60 487.3C80 487.7 100 488.3 120 494.8C140 501.3 160 513.7 180 516.7C200 519.7 220 513.3 240 509.8C260 506.3 280 505.7 300 501.8C320 498 340 491 360 494.8C380 498.7 400 513.3 420 518.2C440 523 460 518 480 509.8C500 501.7 520 490.3 540 489.5C560 488.7 580 498.3 600 506.3C620 514.3 640 520.7 660 517.5C680 514.3 700 501.7 720 496.8C740 492 760 495 780 495.3C800 495.7 820 493.3 840 492.3C860 491.3 880 491.7 890 491.8L900 492L900 601L890 601C880 601 860 601 840 601C820 601 800 601 780 601C760 601 740 601 720 601C700 601 680 601 660 601C640 601 620 601 600 601C580 601 560 601 540 601C520 601 500 601 480 601C460 601 440 601 420 601C400 601 380 601 360 601C340 601 320 601 300 601C280 601 260 601 240 601C220 601 200 601 180 601C160 601 140 601 120 601C100 601 80 601 60 601C40 601 20 601 10 601L0 601Z" fill="#ef5f67"/><path d="M0 516L10 514.8C20 513.7 40 511.3 60 509.8C80 508.3 100 507.7 120 508.5C140 509.3 160 511.7 180 515.5C200 519.3 220 524.7 240 526.7C260 528.7 280 527.3 300 522.8C320 518.3 340 510.7 360 513.2C380 515.7 400 528.3 420 532.3C440 536.3 460 531.7 480 527.3C500 523 520 519 540 516.8C560 514.7 580 514.3 600 511C620 507.7 640 501.3 660 502.7C680 504 700 513 720 519.2C740 525.3 760 528.7 780 531.2C800 533.7 820 535.3 840 537.8C860 540.3 880 543.7 890 545.3L900 547L900 601L890 601C880 601 860 601 840 601C820 601 800 601 780 601C760 601 740 601 720 601C700 601 680 601 660 601C640 601 620 601 600 601C580 601 560 601 540 601C520 601 500 601 480 601C460 601 440 601 420 601C400 601 380 601 360 601C340 601 320 601 300 601C280 601 260 601 240 601C220 601 200 601 180 601C160 601 140 601 120 601C100 601 80 601 60 601C40 601 20 601 10 601L0 601Z" fill="#e34c67"/><path d="M0 538L10 538.7C20 539.3 40 540.7 60 537.7C80 534.7 100 527.3 120 525.3C140 523.3 160 526.7 180 530.8C200 535 220 540 240 541.5C260 543 280 541 300 543.8C320 546.7 340 554.3 360 558.3C380 562.3 400 562.7 420 558.8C440 555 460 547 480 545.2C500 543.3 520 547.7 540 546.5C560 545.3 580 538.7 600 534.7C620 530.7 640 529.3 660 530.8C680 532.3 700 536.7 720 540.7C740 544.7 760 548.3 780 552C800 555.7 820 559.3 840 561.2C860 563 880 563 890 563L900 563L900 601L890 601C880 601 860 601 840 601C820 601 800 601 780 601C760 601 740 601 720 601C700 601 680 601 660 601C640 601 620 601 600 601C580 601 560 601 540 601C520 601 500 601 480 601C460 601 440 601 420 601C400 601 380 601 360 601C340 601 320 601 300 601C280 601 260 601 240 601C220 601 200 601 180 601C160 601 140 601 120 601C100 601 80 601 60 601C40 601 20 601 10 601L0 601Z" fill="#d53867"/><path d="M0 570L10 566.3C20 562.7 40 555.3 60 555.5C80 555.7 100 563.3 120 563.7C140 564 160 557 180 554.7C200 552.3 220 554.7 240 556.7C260 558.7 280 560.3 300 561.5C320 562.7 340 563.3 360 563.2C380 563 400 562 420 560.7C440 559.3 460 557.7 480 555.5C500 553.3 520 550.7 540 550.3C560 550 580 552 600 553.8C620 555.7 640 557.3 660 557.7C680 558 700 557 720 561.7C740 566.3 760 576.7 780 577C800 577.3 820 567.7 840 561.3C860 555 880 552 890 550.5L900 549L900 601L890 601C880 601 860 601 840 601C820 601 800 601 780 601C760 601 740 601 720 601C700 601 680 601 660 601C640 601 620 601 600 601C580 601 560 601 540 601C520 601 500 601 480 601C460 601 440 601 420 601C400 601 380 601 360 601C340 601 320 601 300 601C280 601 260 601 240 601C220 601 200 601 180 601C160 601 140 601 120 601C100 601 80 601 60 601C40 601 20 601 10 601L0 601Z" fill="#c62368"/></svg>