<svg xmlns="http://www.w3.org/2000/svg" xmlns:xlink="http://www.w3.org/1999/xlink" id="visual" version="1.1" viewBox="0 0 900 153.49"><path d="M0 97L10 107.2C20 117.3 40 137.7 60 143.7C80 149.7 100 141.3 120 130C140 118.7 160 104.3 180 101.7C200 99 220 108 240 107.8C260 107.7 280 98.3 300 102.8C320 107.3 340 125.7 360 131.7C380 137.7 400 131.3 420 130.8C440 130.3 460 135.7 480 141.8C500 148 520 155 540 153.2C560 151.3 580 140.7 600 133.8C620 127 640 124 660 121.2C680 118.3 700 115.7 720 113C740 110.3 760 107.7 780 108C800 108.3 820 111.7 840 117.5C860 123.3 880 131.7 890 135.8L900 140L900 0L890 0C880 0 860 0 840 0C820 0 800 0 780 0C760 0 740 0 720 0C700 0 680 0 660 0C640 0 620 0 600 0C580 0 560 0 540 0C520 0 500 0 480 0C460 0 440 0 420 0C400 0 380 0 360 0C340 0 320 0 300 0C280 0 260 0 240 0C220 0 200 0 180 0C160 0 140 0 120 0C100 0 80 0 60 0C40 0 20 0 10 0L0 0Z" fill="#fa7268"/><path d="M0 73L10 73.2C20 73.3 40 73.7 60 74.8C80 76 100 78 120 84.3C140 90.7 160 101.3 180 103C200 104.7 220 97.3 240 98.8C260 100.3 280 110.7 300 118C320 125.3 340 129.7 360 122.2C380 114.7 400 95.3 420 90.2C440 85 460 94 480 93.8C500 93.7 520 84.3 540 89C560 93.7 580 112.3 600 112.3C620 112.3 640 93.7 660 92.7C680 91.7 700 108.3 720 109C740 109.7 760 94.3 780 87C800 79.7 820 80.3 840 81.7C860 83 880 85 890 86L900 87L900 0L890 0C880 0 860 0 840 0C820 0 800 0 780 0C760 0 740 0 720 0C700 0 680 0 660 0C640 0 620 0 600 0C580 0 560 0 540 0C520 0 500 0 480 0C460 0 440 0 420 0C400 0 380 0 360 0C340 0 320 0 300 0C280 0 260 0 240 0C220 0 200 0 180 0C160 0 140 0 120 0C100 0 80 0 60 0C40 0 20 0 10 0L0 0Z" fill="#ef5f67"/><path d="M0 67L10 67.3C20 67.7 40 68.3 60 72.7C80 77 100 85 120 83.2C140 81.3 160 69.7 180 66.3C200 63 220 68 240 66.8C260 65.7 280 58.3 300 56.7C320 55 340 59 360 61.2C380 63.3 400 63.7 420 64.8C440 66 460 68 480 67.7C500 67.3 520 64.7 540 63.8C560 63 580 64 600 63.5C620 63 640 61 660 67.2C680 73.3 700 87.7 720 95C740 102.3 760 102.7 780 99.2C800 95.7 820 88.3 840 79.8C860 71.3 880 61.7 890 56.8L900 52L900 0L890 0C880 0 860 0 840 0C820 0 800 0 780 0C760 0 740 0 720 0C700 0 680 0 660 0C640 0 620 0 600 0C580 0 560 0 540 0C520 0 500 0 480 0C460 0 440 0 420 0C400 0 380 0 360 0C340 0 320 0 300 0C280 0 260 0 240 0C220 0 200 0 180 0C160 0 140 0 120 0C100 0 80 0 60 0C40 0 20 0 10 0L0 0Z" fill="#e34c67"/><path d="M0 46L10 46.5C20 47 40 48 60 50.8C80 53.7 100 58.3 120 61.7C140 65 160 67 180 69.2C200 71.3 220 73.7 240 67.3C260 61 280 46 300 43.7C320 41.3 340 51.7 360 55C380 58.3 400 54.7 420 55.5C440 56.3 460 61.7 480 64.3C500 67 520 67 540 67.8C560 68.7 580 70.3 600 68.5C620 66.7 640 61.3 660 55.8C680 50.3 700 44.7 720 47.2C740 49.7 760 60.3 780 63.2C800 66 820 61 840 54.3C860 47.7 880 39.3 890 35.2L900 31L900 0L890 0C880 0 860 0 840 0C820 0 800 0 780 0C760 0 740 0 720 0C700 0 680 0 660 0C640 0 620 0 600 0C580 0 560 0 540 0C520 0 500 0 480 0C460 0 440 0 420 0C400 0 380 0 360 0C340 0 320 0 300 0C280 0 260 0 240 0C220 0 200 0 180 0C160 0 140 0 120 0C100 0 80 0 60 0C40 0 20 0 10 0L0 0Z" fill="#d53867"/><path d="M0 45L10 43.3C20 41.7 40 38.3 60 38.2C80 38 100 41 120 36.7C140 32.3 160 20.7 180 20C200 19.3 220 29.7 240 29.8C260 30 280 20 300 15.2C320 10.3 340 10.7 360 14.5C380 18.3 400 25.7 420 26C440 26.3 460 19.7 480 16.7C500 13.7 520 14.3 540 15.3C560 16.3 580 17.7 600 19.7C620 21.7 640 24.3 660 22.7C680 21 700 15 720 13.8C740 12.7 760 16.3 780 19.2C800 22 820 24 840 27.2C860 30.3 880 34.7 890 36.8L900 39L900 0L890 0C880 0 860 0 840 0C820 0 800 0 780 0C760 0 740 0 720 0C700 0 680 0 660 0C640 0 620 0 600 0C580 0 560 0 540 0C520 0 500 0 480 0C460 0 440 0 420 0C400 0 380 0 360 0C340 0 320 0 300 0C280 0 260 0 240 0C220 0 200 0 180 0C160 0 140 0 120 0C100 0 80 0 60 0C40 0 20 0 10 0L0 0Z" fill="#c62368"/></svg>